# xmcd
#
# Track frame offsets:
#	150
#	10566
#	17746
#	30807
#	44022
#	55815
#	71859
#	85881
#	97042
#	105669
#	124966
#	139563
#	145374
#	156655
#	167790
#	184707
#	202139
#	214899
#	223308
#	235895
#	245896
#	254849
#	271051
#	280539
#	293436
#
# Disc length: 3973 seconds
#
# Revision: 3
# Processed by: cddbd v1.5.2PL0 Copyright (c) Steve Scherf et al.
# Submitted via: audiograbber 1.83.01
#
DISCID=820f8319
DTITLE=Carter Family, The - The Carter Family On Border Radio, Vol. 3
DYEAR=1900
DGENRE=Country
TTITLE0=Theme - Cannon Ball Blues (family)
TTITLE1=The Story of Charlie and Nellie (family)
TTITLE2=One Little Word (A.P.) - Alabama Gal (instr.)
TTITLE3=You Are My Sunshine (Jeanette) - Happy or Lonesome (family)
TTITLE4=Oh, Susanna (Anita) - On My Way to Canaan´s Land (family)
TTITLE5=Going Back to Texas (family) - Great Speckled Bird (Carter sisters)
TTITLE6=Oh, Death (Jeanette) - Don´t Bury me on the Lone Prairie (family)
TTITLE7=When the Spring Roses are Blooming (A.P.) -  Chinese Breakdown (instr.)
TTITLE8=Way Down Yonder in the Cumberland Mountains (Carter sisters) - Let the 
TTITLE8=Church Roll On (family)
TTITLE9=Broken Engagement (Sara and Maybelle) - I Shall Not Be Moved (Carter sist
TTITLE9=ers)
TTITLE10=Dark Haired True Lover (Jeanette)  - In Your Care (family)
TTITLE11=Theme - Station ID
TTITLE12=Theme - The Old Ladies' Home (family)
TTITLE13=The Winding Stream (family)
TTITLE14=Miner's Blues (Sara and Maybelle) - Columbus Stockade Blues (Carter sist
TTITLE14=ers)
TTITLE15=No Home (Jeanette) - Prisoner's Dream (family)
TTITLE16=Something Got A Hold of Me (A.P.) - Spirit of Love (instr.)
TTITLE17=Worried Man's Blues (family)
TTITLE18=Giddyup Go (Anita) - Sittin' on Top of the World (family)
TTITLE19=My Virginia Rose (A.P.)
TTITLE20=Cyclone of Rye Cove (family)
TTITLE21=Wade in the Water (Jeanette) - Charlie Brooks (family)
TTITLE22=Anchored in Love (family)
TTITLE23=I've Been Working on the Railroad (Carter sisters) - I'll Be Satisfied
TTITLE23=(family)
TTITLE24=Theme Out and Station ID
EXTD=
EXTT0=
EXTT1=
EXTT2=
EXTT3=
EXTT4=
EXTT5=
EXTT6=
EXTT7=
EXTT8=
EXTT9=
EXTT10=
EXTT11=
EXTT12=
EXTT13=
EXTT14=
EXTT15=
EXTT16=
EXTT17=
EXTT18=
EXTT19=
EXTT20=
EXTT21=
EXTT22=
EXTT23=
EXTT24=
PLAYORDER=
